<svg width="45" height="45" viewBox="0 0 45 45" fill="none" xmlns="http://www.w3.org/2000/svg">
<path d="M17.2423 15.0263C17.2921 14.632 17.4964 14.2735 17.8104 14.0297C18.1243 13.7859 18.5222 13.6766 18.9166 13.7259L30.8436 15.2251C31.2379 15.2749 31.5964 15.4792 31.8402 15.7932C32.0841 16.1071 32.1933 16.505 32.144 16.8994L30.6448 28.8264C30.5826 29.21 30.374 29.5546 30.0629 29.7877C29.7519 30.0208 29.3626 30.1242 28.9769 30.0763C28.5913 30.0273 28.2397 29.8307 27.996 29.5279C27.7523 29.2251 27.6355 28.8396 27.6701 28.4525L28.7177 20.1176L16.9659 29.245C16.6517 29.489 16.2535 29.5983 15.8588 29.5487C15.464 29.499 15.1052 29.2947 14.8612 28.9805C14.6172 28.6663 14.5079 28.268 14.5575 27.8733C14.6072 27.4786 14.8115 27.1197 15.1257 26.8757L26.8775 17.7483L18.5427 16.7007C18.1483 16.6508 17.7899 16.4465 17.546 16.1326C17.3022 15.8187 17.193 15.4208 17.2423 15.0263Z" fill="#0A84FF"/>
</svg>
